<?xml version="1.0" encoding="UTF-8"?>
<svg id="Layer_2" data-name="Layer 2" xmlns="http://www.w3.org/2000/svg" xmlns:xlink="http://www.w3.org/1999/xlink" viewBox="0 0 3646.19 229.35">
  <defs>
    <style>
      .cls-1 {
        fill: #164194;
      }

      .cls-1, .cls-2, .cls-3, .cls-4, .cls-5, .cls-6, .cls-7, .cls-8, .cls-9, .cls-10, .cls-11, .cls-12, .cls-13, .cls-14, .cls-15, .cls-16, .cls-17, .cls-18, .cls-19, .cls-20, .cls-21, .cls-22, .cls-23 {
        stroke-width: 0px;
      }

      .cls-2 {
        fill: #575756;
      }

      .cls-3 {
        fill: #108838;
      }

      .cls-4 {
        fill: #3dae2f;
      }

      .cls-24 {
        clip-path: url(#clippath);
      }

      .cls-5 {
        fill: #f7cc2a;
      }

      .cls-6 {
        fill: none;
      }

      .cls-7 {
        fill: #0094d3;
      }

      .cls-8 {
        fill: #9d9d9c;
      }

      .cls-9 {
        fill: #f6a118;
      }

      .cls-10 {
        fill: #39a935;
      }

      .cls-11 {
        fill: #be2429;
      }

      .cls-12 {
        fill: #fc0;
      }

      .cls-25 {
        clip-path: url(#clippath-1);
      }

      .cls-13 {
        fill: #66b2e3;
      }

      .cls-14 {
        fill: #066736;
      }

      .cls-15 {
        fill: #e92429;
      }

      .cls-16 {
        fill: #283b8e;
      }

      .cls-17 {
        fill: #029347;
      }

      .cls-18 {
        fill: #3c3c3b;
      }

      .cls-19 {
        fill: #039;
      }

      .cls-20 {
        fill: #b8332b;
      }

      .cls-21 {
        fill: #dd2431;
      }

      .cls-22 {
        fill: #e43c2f;
      }

      .cls-23 {
        fill: #fff;
      }
    </style>
    <clipPath id="clippath">
      <polyline class="cls-6" points="2029.37 23.73 2029.37 145.16 1987.5 175.34 1972.28 211.35 1972.28 86.25"/>
    </clipPath>
    <clipPath id="clippath-1">
      <polygon class="cls-6" points="2046.5 37.97 2118.46 23.44 2118.46 120.16 2080.65 157.39 1997.87 188.11 2046.5 154.11 2046.5 37.97"/>
    </clipPath>
  </defs>
  <g id="Layer_1-2" data-name="Layer 1">
    <g>
      <g>
        <path class="cls-2" d="M1604.53,188.72h-7.19v20.42h7.13c6.49,0,10.64-3.72,10.64-10.21s-4.15-10.21-10.58-10.21M1604.35,207.6h-5.29v-17.34h5.32c5.51,0,8.89,3.08,8.89,8.7s-3.41,8.64-8.92,8.64M1633.84,190.23v-1.51h-13.75v20.42h13.75v-1.51h-11.99v-8.12h10.42v-1.51h-10.42v-7.78h11.99ZM1645.89,188.72v20.42h12.73v-1.51h-10.95v-18.92h-1.78ZM1664.65,188.72h-1.78v20.42h1.78v-20.42ZM1677.53,188.39c-4.27,0-7.38,2.09-7.38,5.47,0,3.72,3.38,4.83,6.83,5.63,3.29.74,5.9,1.39,5.9,4.18,0,2.43-2.12,4.25-5.78,4.25-2.83,0-5.5-1.14-6.76-2.28l-.71,1.47c1.35,1.2,4.25,2.34,7.41,2.34,4.49,0,7.63-2.06,7.63-5.87,0-4.06-3.41-4.89-7.13-5.78-3.54-.83-5.56-1.6-5.56-4,0-2.09,1.93-3.84,5.5-3.84,2.49,0,4.8.89,5.84,1.63l.65-1.41c-1.29-.92-3.81-1.78-6.43-1.78M1689.5,188.72v20.42h9.04c4,0,6.21-2.31,6.21-5.38,0-2.74-1.75-4.73-4.21-5.16,2-.74,3.29-2.52,3.29-4.67,0-3.2-2.4-5.2-6.27-5.2h-8.06ZM1691.25,190.17h6.15c2.92,0,4.55,1.6,4.55,3.91s-1.66,4.06-4.58,4.06h-6.12v-7.96ZM1691.25,199.48h7.04c2.92,0,4.58,1.72,4.58,4.18s-1.57,4.06-4.36,4.06h-7.26v-8.24ZM1718.99,188.39c-6.31,0-10.7,4.33-10.7,10.51s4.4,10.58,10.7,10.58,10.7-4.37,10.7-10.58-4.46-10.51-10.7-10.51M1727.84,198.9c0,5.29-3.69,8.95-8.85,8.95s-8.89-3.66-8.89-8.95,3.69-8.89,8.89-8.89,8.85,3.69,8.85,8.89M1740.51,188.72l-9.23,20.42h1.88l2.31-5.17h12.15l2.34,5.17h1.88l-9.26-20.42h-2.06ZM1741.56,190.35l5.47,12.12h-10.95l5.47-12.12Z"/>
        <path class="cls-2" d="M1612.19,176.93l-7.96-8.24h.52c4.49,0,6.98-2.61,6.98-6.09s-2.28-6.09-6.67-6.09h-7.72v20.42h1.78v-8.24h2.92l7.91,8.24h2.24ZM1599.12,158.01h5.75c3.44,0,5.04,1.91,5.04,4.68,0,2.61-1.82,4.55-5.32,4.55h-5.47v-9.22ZM1630.39,158.01v-1.51h-13.74v20.42h13.74v-1.51h-11.99v-8.12h10.42v-1.5h-10.42v-7.78h11.99ZM1652.81,167.12h-8.24v1.47h6.58v5.6c-1.45.92-3.72,1.51-6.12,1.51-5.51,0-9.2-3.69-9.2-8.98s3.66-8.92,9.04-8.92c2.43,0,4.73.61,6.3,1.75l.49-1.54c-1.69-1.2-4.21-1.84-6.89-1.84-6.52,0-10.82,4.37-10.82,10.55s4.33,10.55,10.95,10.55c3.2,0,6.12-.8,7.91-2.12v-8.02ZM1660.07,156.51h-1.78v20.42h1.78v-20.42ZM1675.78,156.17c-6.3,0-10.7,4.34-10.7,10.52s4.4,10.58,10.7,10.58,10.7-4.37,10.7-10.58-4.46-10.52-10.7-10.52M1684.64,166.69c0,5.29-3.69,8.95-8.86,8.95s-8.89-3.66-8.89-8.95,3.69-8.89,8.89-8.89,8.86,3.69,8.86,8.89M1707.49,156.51v17.78l-14.27-17.78h-1.78v20.42h1.78v-17.77l14.33,17.77h1.69v-20.42h-1.75ZM1722.06,156.51l-9.22,20.42h1.88l2.3-5.16h12.15l2.34,5.16h1.88l-9.26-20.42h-2.06ZM1723.11,158.14l5.47,12.12h-10.95l5.47-12.12ZM1736.98,156.51v20.42h12.73v-1.51h-10.95v-18.91h-1.78Z"/>
        <path class="cls-2" d="M1605.24,124.29h-7.9v20.42h1.75v-7.17h5.87c4.74,0,7.54-2.71,7.54-6.61s-2.37-6.64-7.26-6.64M1604.78,136.04h-5.69v-10.24h6.3c3.41,0,5.29,2.03,5.29,5.16s-2.12,5.08-5.91,5.08M1631.66,144.71l-7.96-8.24h.52c4.49,0,6.98-2.61,6.98-6.09s-2.27-6.09-6.67-6.09h-7.72v20.42h1.78v-8.24h2.92l7.91,8.24h2.24ZM1618.58,125.8h5.75c3.44,0,5.04,1.91,5.04,4.67,0,2.61-1.82,4.55-5.32,4.55h-5.47v-9.22ZM1645.77,123.95c-6.3,0-10.7,4.33-10.7,10.51s4.4,10.58,10.7,10.58,10.7-4.36,10.7-10.58-4.46-10.51-10.7-10.51M1654.62,134.47c0,5.29-3.69,8.95-8.85,8.95s-8.89-3.66-8.89-8.95,3.69-8.89,8.89-8.89,8.85,3.69,8.85,8.89M1679.23,134.9h-8.24v1.48h6.58v5.6c-1.44.92-3.72,1.51-6.12,1.51-5.5,0-9.2-3.69-9.2-8.98s3.66-8.92,9.04-8.92c2.43,0,4.74.62,6.3,1.75l.49-1.54c-1.69-1.2-4.21-1.84-6.89-1.84-6.52,0-10.82,4.37-10.82,10.55s4.33,10.55,10.95,10.55c3.2,0,6.12-.8,7.91-2.12v-8.03ZM1699.55,144.71l-7.96-8.24h.52c4.49,0,6.98-2.61,6.98-6.09s-2.28-6.09-6.67-6.09h-7.72v20.42h1.78v-8.24h2.92l7.9,8.24h2.24ZM1686.48,125.8h5.75c3.44,0,5.04,1.91,5.04,4.67,0,2.61-1.82,4.55-5.32,4.55h-5.47v-9.22ZM1710.81,124.29l-9.22,20.42h1.88l2.31-5.17h12.15l2.34,5.17h1.88l-9.26-20.42h-2.06ZM1711.85,125.92l5.47,12.12h-10.95l5.47-12.12ZM1745.99,124.29l-9.04,18.23-9.04-18.23h-2.18v20.42h1.75v-17.65l8.76,17.65h1.41l8.77-17.65v17.65h1.75v-20.42h-2.18ZM1760.96,124.29l-9.22,20.42h1.88l2.3-5.17h12.15l2.34,5.17h1.88l-9.26-20.42h-2.06ZM1762.01,125.92l5.47,12.12h-10.95l5.47-12.12Z"/>
        <path class="cls-13" d="M1441.5,145.72c-11.56,0-20.97,9.4-20.97,20.97s9.4,20.97,20.97,20.97,20.97-9.41,20.97-20.97-9.4-20.97-20.97-20.97M1441.5,209.24c-23.47,0-42.56-19.09-42.56-42.56s19.09-42.56,42.56-42.56,42.56,19.09,42.56,42.56-19.09,42.56-42.56,42.56"/>
        <path class="cls-13" d="M1537.35,187.65c-11.56,0-20.97-9.4-20.97-20.97s9.4-20.97,20.97-20.97,20.85,9.29,20.96,20.76v.41c-.11,11.47-9.47,20.76-20.96,20.76M1558.31,124.13v5.53c-6.19-3.52-13.35-5.53-20.96-5.53-23.47,0-42.56,19.09-42.56,42.56s19.09,42.56,42.56,42.56c7.61,0,14.77-2.01,20.96-5.53v5.53h21.6v-85.11h-21.6Z"/>
        <path class="cls-7" d="M1558.31,129.66v36.82c0,.07,0,.14,0,.2s0,.14,0,.21v36.82c12.89-7.32,21.6-21.17,21.6-37.03s-8.71-29.7-21.6-37.02"/>
        <path class="cls-13" d="M1345.67,187.65c-11.49,0-20.85-9.29-20.96-20.76v-.41c.11-11.47,9.47-20.76,20.96-20.76s20.97,9.41,20.97,20.97-9.4,20.97-20.97,20.97M1345.67,124.13c-7.62,0-14.77,2.01-20.96,5.53v-37.7h-21.6v117.28h21.6v-5.53c6.19,3.52,13.34,5.53,20.96,5.53,23.47,0,42.56-19.09,42.56-42.56s-19.09-42.56-42.56-42.56"/>
        <path class="cls-7" d="M1324.71,203.71v-36.82c0-.07,0-.14,0-.21s0-.13,0-.2v-36.82c-12.89,7.32-21.6,21.17-21.6,37.02s8.71,29.7,21.6,37.03"/>
        <rect class="cls-13" x="1194.84" y="124.12" width="21.6" height="85.11"/>
        <path class="cls-13" d="M1168.88,181.48c-3.8,3.8-9.05,6.16-14.83,6.16-11.54,0-20.92-9.36-20.97-20.89h0v-74.8h-21.6v74.8h0c.04,23.44,19.12,42.48,42.56,42.48,11.74,0,22.39-4.78,30.09-12.49l-15.26-15.26Z"/>
        <path class="cls-13" d="M1265.76,155.88h-12.22c-2.78,0-5.05-2.26-5.05-5.05s2.26-5.05,5.05-5.05h34.24v-21.6h-34.24c-14.69,0-26.64,11.95-26.64,26.64s11.95,26.64,26.64,26.64h12.22c2.78,0,5.05,2.26,5.05,5.05s-2.26,5.05-5.05,5.05h-34.06v21.6h34.06c14.69,0,26.64-11.95,26.64-26.64s-11.95-26.64-26.64-26.64"/>
        <path class="cls-21" d="M1512.62,59.98c5.4-4.39,8.85-11.09,8.85-18.59,0-13.23-10.73-23.96-23.96-23.96s-23.96,10.73-23.96,23.96h10.73c0-7.3,5.92-13.23,13.23-13.23s13.23,5.93,13.23,13.23-5.92,13.23-13.23,13.23v10.73c7.3,0,13.23,5.92,13.23,13.23s-5.92,13.23-13.23,13.23-13.23-5.93-13.23-13.23h-10.73c0,13.23,10.73,23.96,23.96,23.96s23.96-10.73,23.96-23.96c0-7.5-3.45-14.2-8.85-18.59"/>
        <path class="cls-20" d="M1497.51,54.61v10.73c5.73,0,10.98-2.01,15.1-5.36-4.12-3.35-9.38-5.36-15.1-5.36"/>
        <path class="cls-10" d="M1380.7,17.47c-13.23,0-23.96,10.73-23.96,23.96h10.73c0-7.31,5.93-13.24,13.23-13.24s13.23,5.92,13.23,13.23c0,3.3-1.21,6.31-3.2,8.63l-33.98,41.73v10.73h4.94s0,0,0,0h42.97v-10.73h-34.2l29.26-35.79c3.1-4.03,4.94-9.09,4.94-14.57,0-13.23-10.73-23.96-23.96-23.96"/>
        <polygon class="cls-3" points="1370.46 91.79 1356.74 91.79 1356.74 102.52 1361.68 102.52 1370.46 91.79"/>
        <path class="cls-10" d="M1452.12,78.57c0,7.31-5.93,13.23-13.23,13.23s-13.23-5.92-13.23-13.23v-37.19c0-7.3,5.92-13.23,13.23-13.23s13.23,5.93,13.23,13.23v37.19ZM1438.89,17.42c-13.23,0-23.96,10.73-23.96,23.96v37.19c0,13.23,10.73,23.96,23.96,23.96s23.96-10.73,23.96-23.96v-37.19c0-13.23-10.73-23.96-23.96-23.96"/>
        <path class="cls-21" d="M1569.36,78.57c0,7.31-5.92,13.23-13.23,13.23s-13.23-5.92-13.23-13.23v-37.19c0-7.3,5.92-13.23,13.23-13.23s13.23,5.93,13.23,13.23v37.19ZM1556.13,17.42c-13.23,0-23.96,10.73-23.96,23.96v37.19c0,13.23,10.73,23.96,23.96,23.96s23.96-10.73,23.96-23.96v-37.19c0-13.23-10.73-23.96-23.96-23.96"/>
      </g>
      <g>
        <path class="cls-16" d="M2157.41,24.22c5.09,0,7.83.44,10.67,2.54,2.54,1.86,4.31,5.68,4.31,9.54s-1.76,7.73-4.31,9.54c-2.84,2.05-5.68,2.54-10.67,2.54h-8.17v18.44h-1.71V24.22h9.88,0ZM2149.24,46.82h8.22c4.8,0,7.24-.59,9.69-2.35,2.06-1.52,3.52-4.89,3.52-8.12s-1.42-6.75-3.52-8.22c-2.4-1.76-4.84-2.35-9.69-2.35h-8.22v21.09-.05h0Z"/>
        <path class="cls-16" d="M2173.94,45.45c0-12.72,9.88-21.97,22.11-21.97s22.11,9.25,22.11,22.07-9.88,22.07-22.11,22.07-22.11-9.25-22.11-22.07h0v-.1ZM2175.66,45.55c0,11.74,9.1,20.45,20.4,20.45s20.4-8.71,20.4-20.5-9.1-20.5-20.4-20.5-20.4,8.71-20.4,20.5h0v.05h0Z"/>
        <path class="cls-16" d="M2223.01,24.22h9.74c6.6,0,9.25.59,11.35,1.76,3.47,1.71,6.16,6.41,6.16,11.35.1,2.64-.69,5.97-2.69,8.61-3.13,4.11-6.65,4.6-11.5,4.79l11.45,16.05h-2.2l-12.47-17.61h1.22c3.13,0,8.17,0,10.86-2.69,2.69-2.84,3.62-5.77,3.62-9.1,0-3.67-1.76-7.78-5.09-9.88-2.59-1.66-5.68-1.71-10.71-1.71h-8.02v41.05h-1.71V24.22h0Z"/>
        <path class="cls-16" d="M2261.17,25.78h-11.59v-1.57h24.85v1.57h-11.59v41.05h-1.71V25.78h.05Z"/>
        <path class="cls-16" d="M2279.47,24.22v27.64c0,4.16,0,6.8,2.64,10.23,1.86,2.4,5.33,3.91,8.76,3.91s6.75-1.52,8.56-3.91c2.64-3.47,2.64-6.12,2.64-10.23v-27.64h1.71v27.64c.05,3.87-.1,9.59-5.14,13.11-2.2,1.61-4.99,2.59-7.93,2.59s-5.68-.98-7.88-2.59c-4.99-3.52-5.19-9.25-5.14-13.11v-27.64h1.76Z"/>
        <path class="cls-16" d="M2348.5,33.66c-1.71-2.25-3.72-4.11-5.97-5.48-3.28-2.05-7.14-3.18-11.3-3.18-11.3,0-20.4,8.71-20.4,20.5s9.1,20.5,20.4,20.5c5.43,0,10.18-1.96,13.75-4.84,3.62-2.93,6.11-6.85,6.85-10.81h-25.39v-1.57h27.45c-.24,2.2-.88,4.3-1.86,6.26-3.52,7.24-11.45,12.48-20.84,12.48-12.18,0-22.11-9.25-22.11-22.07s9.88-22.07,22.11-22.07c7.83,0,15.51,3.87,19.32,10.18h-2.06l.05.1h0Z"/>
        <path class="cls-16" d="M2354.96,66.83h-1.86l18.25-42.61h2.25l18.25,42.61h-1.86l-6.41-14.87h-22.26l-6.41,14.87h.05,0ZM2372.48,25.83l-10.37,24.56h20.79l-10.42-24.56Z"/>
        <path class="cls-16" d="M2395.27,24.22h1.71v41.05h18v1.57h-19.77V24.22h.05Z"/>
        <path class="cls-14" d="M2143.22,207.63c14.14-13.6,28.08-27.4,42.07-41.05,11.74-11.06,24.12-21.72,24.8-37.43,0-16.73-11.4-27.25-26.22-27.25s-25.54,11.55-26.03,31.02h-13.6c.34-12.43,3.82-22.95,11.06-30.68,8.46-10.18,21.04-12.92,29.99-12.92,23.63,0,39.33,17.22,38.94,39.14-.54,13.8-6.9,23.43-19.47,36.55-13.94,13.94-27.94,27.93-42.07,41.88h61.89v12.23h-81.36v-11.55.05h0Z"/>
        <path class="cls-14" d="M2235.1,133.51c0-36.89,30.68-44.13,43.1-44.13,20.5,0,43.3,14.14,43.3,43.1v45.84c0,33.61-28.62,43.1-42.76,43.1-16.19,0-43.64-10.32-43.64-43.1v-44.81ZM2249.43,178.67c0,17.95,12.57,30.19,28.96,30.19,13.26,0,28.96-10.32,28.96-30.19v-46.58c0-12.57-7.58-30.19-29.31-30.19-16.73,0-28.62,12.43-28.62,30.87v45.89h0Z"/>
        <path class="cls-11" d="M2337.89,121.77c.88-23.09,19.47-32.44,34.49-32.44,18.3,0,33.12,12.43,33.12,31.36,0,12.77-7.58,21.72-17.56,26.91,22.6,7.78,25.69,26.22,25.69,34.15,0,23.29-17.95,39.68-41.88,39.68-12.57,0-25.88-5.33-33.61-15.51-5.33-7.05-7.78-15.85-7.93-24.12h14.33c.69,17.07,13.8,27.05,27.74,27.05,16.88,0,27.06-12.43,27.06-27.4,0-13.6-11.06-27.25-29.99-27.25h-8.46v-11.06h6.36c18.3,0,24.12-13.26,24.12-20.84,0-11.55-7.58-20.35-19.13-20.35-13.26,0-19.67,9.98-20.35,19.81h-13.99,0Z"/>
        <path class="cls-11" d="M2425.12,133.51c0-36.89,30.68-44.13,43.1-44.13,20.5,0,43.3,14.14,43.3,43.1v45.84c0,33.61-28.62,43.1-42.76,43.1-16.19,0-43.64-10.32-43.64-43.1v-44.81ZM2439.45,178.67c0,17.95,12.57,30.19,28.96,30.19,13.26,0,28.96-10.32,28.96-30.19v-46.58c0-12.57-7.58-30.19-29.31-30.19-16.73,0-28.62,12.43-28.62,30.87v45.89h0Z"/>
        <polygon class="cls-16" points="1997.87 204.11 2080.6 173.14 2080.6 173.14 2057.36 223.39 1997.87 204.11"/>
        <polyline class="cls-14" points="2029.37 23.73 2029.37 145.16 1987.5 175.34 1972.28 211.35 1972.28 86.25"/>
        <g class="cls-24">
          <polygon class="cls-17" points="2033.58 10.13 1972.28 211.35 1949.33 23.73 2033.58 10.13"/>
        </g>
        <polygon id="SVGID" class="cls-11" points="2046.5 37.97 2118.46 23.44 2118.46 120.16 2080.65 157.39 1997.87 188.11 2046.5 154.11 2046.5 37.97"/>
        <g class="cls-25">
          <polygon class="cls-15" points="2046.5 37.97 2089.16 186.25 2149.29 105.77 2149.29 0 2046.5 37.97"/>
        </g>
        <polygon class="cls-5" points="2080.6 173.14 2057.36 223.39 2080.65 216.24 2080.6 173.14"/>
      </g>
      <g>
        <rect class="cls-23" x="2711.52" y="17.42" width="312.09" height="211.93"/>
        <rect class="cls-19" x="2717.52" y="23.24" width="300.09" height="200.06"/>
        <polyline class="cls-12" points="2861.17 66.83 2867.5 62.2 2873.83 66.83 2871.42 59.35 2877.85 54.73 2869.92 54.73 2867.5 47.17 2865.07 54.74 2857.15 54.73 2863.58 59.35 2861.17 66.83"/>
        <polyline class="cls-12" points="2828.4 75.63 2834.73 71.01 2841.06 75.63 2838.65 68.16 2845.08 63.53 2837.15 63.53 2834.73 55.96 2832.3 63.54 2824.38 63.53 2830.8 68.16 2828.4 75.63"/>
        <polyline class="cls-12" points="2810.75 79.99 2808.33 87.57 2800.4 87.57 2806.83 92.19 2804.42 99.66 2810.75 95.04 2817.08 99.66 2814.68 92.19 2821.1 87.57 2813.18 87.57 2810.75 79.99"/>
        <polyline class="cls-12" points="2801.96 127.77 2808.29 132.39 2805.88 124.92 2812.31 120.29 2804.38 120.29 2801.96 112.72 2799.53 120.31 2791.6 120.29 2798.03 124.92 2795.63 132.39 2801.96 127.77"/>
        <polyline class="cls-12" points="2813.18 153.12 2810.75 145.55 2808.33 153.13 2800.4 153.12 2806.83 157.74 2804.42 165.21 2810.75 160.58 2817.08 165.21 2814.68 157.74 2821.1 153.12 2813.18 153.12"/>
        <polyline class="cls-12" points="2837.2 177.14 2834.78 169.58 2832.35 177.15 2824.43 177.14 2830.85 181.76 2828.45 189.24 2834.78 184.62 2841.11 189.24 2838.7 181.76 2845.13 177.14 2837.2 177.14"/>
        <polyline class="cls-12" points="2869.93 185.85 2867.5 178.28 2865.08 185.86 2857.15 185.85 2863.58 190.47 2861.18 197.94 2867.51 193.32 2873.83 197.94 2871.43 190.47 2877.86 185.85 2869.93 185.85"/>
        <polyline class="cls-12" points="2902.66 177.14 2900.23 169.58 2897.8 177.15 2889.89 177.14 2896.31 181.76 2893.9 189.24 2900.23 184.62 2906.57 189.24 2904.15 181.76 2910.58 177.14 2902.66 177.14"/>
        <polyline class="cls-12" points="2926.69 153.12 2924.26 145.55 2921.83 153.13 2913.91 153.12 2920.34 157.74 2917.93 165.21 2924.26 160.58 2930.59 165.21 2928.18 157.74 2934.61 153.12 2926.69 153.12"/>
        <polyline class="cls-12" points="2943.31 120.2 2935.38 120.2 2932.95 112.63 2930.53 120.21 2922.6 120.2 2929.04 124.82 2926.63 132.3 2932.95 127.67 2939.29 132.3 2936.88 124.82 2943.31 120.2"/>
        <polyline class="cls-12" points="2917.92 99.56 2924.26 94.94 2930.59 99.56 2928.18 92.09 2934.61 87.47 2926.69 87.47 2924.26 79.9 2921.83 87.48 2913.91 87.47 2920.34 92.09 2917.92 99.56"/>
        <polyline class="cls-12" points="2900.33 55.97 2897.9 63.55 2889.98 63.53 2896.4 68.16 2893.99 75.64 2900.33 71.01 2906.66 75.64 2904.25 68.16 2910.68 63.53 2902.75 63.53 2900.33 55.97"/>
        <path class="cls-19" d="M3092.67,80.23l9.64,3.06c-1.48,5.37-3.94,9.36-7.37,11.97-3.44,2.61-7.8,3.91-13.08,3.91-6.54,0-11.91-2.23-16.12-6.7-4.21-4.47-6.31-10.57-6.31-18.32,0-8.19,2.12-14.56,6.35-19.09,4.23-4.53,9.79-6.8,16.69-6.8,6.02,0,10.91,1.78,14.68,5.34,2.24,2.1,3.92,5.13,5.04,9.07l-9.84,2.35c-.58-2.55-1.8-4.57-3.64-6.04-1.85-1.48-4.09-2.22-6.73-2.22-3.65,0-6.61,1.31-8.88,3.93-2.27,2.62-3.41,6.86-3.41,12.73,0,6.23,1.12,10.66,3.36,13.3,2.24,2.64,5.15,3.96,8.73,3.96,2.64,0,4.91-.84,6.82-2.52,1.9-1.68,3.27-4.32,4.1-7.93h0Z"/>
        <path class="cls-19" d="M3108.59,79.99c0-3.13.77-6.17,2.32-9.1,1.54-2.93,3.73-5.17,6.56-6.72,2.83-1.55,5.99-2.32,9.49-2.32,5.4,0,9.82,1.75,13.27,5.26,3.45,3.5,5.17,7.93,5.17,13.28s-1.74,9.87-5.22,13.42-7.86,5.32-13.15,5.32c-3.27,0-6.39-.74-9.35-2.22-2.97-1.48-5.22-3.64-6.77-6.5-1.55-2.85-2.32-6.33-2.32-10.43h0ZM3118.26,80.5c0,3.54.84,6.25,2.52,8.13,1.68,1.88,3.75,2.82,6.21,2.82s4.53-.94,6.2-2.82,2.5-4.61,2.5-8.19-.83-6.18-2.5-8.06-3.73-2.82-6.2-2.82-4.53.94-6.21,2.82c-1.68,1.88-2.52,4.59-2.52,8.13h0Z"/>
        <path class="cls-19" d="M3148.89,62.66h5.24v-2.69c0-3,.32-5.24.96-6.72.64-1.48,1.81-2.68,3.53-3.61,1.71-.93,3.88-1.39,6.5-1.39s5.32.4,7.89,1.21l-1.27,6.58c-1.5-.36-2.95-.54-4.33-.54s-2.35.32-2.94.96c-.59.64-.89,1.86-.89,3.68v2.52h7.05v7.42h-7.05v28.24h-9.44v-28.24h-5.24v-7.42h0ZM3175.39,57.83v-8.73h9.44v8.73h-9.44ZM3175.39,98.33v-35.67h9.44v35.67h-9.44Z"/>
        <path class="cls-19" d="M3227.24,98.33h-9.44v-18.2c0-3.85-.2-6.34-.6-7.47s-1.06-2.01-1.96-2.64c-.91-.63-2-.94-3.27-.94-1.64,0-3.1.45-4.4,1.34-1.3.9-2.19,2.08-2.67,3.56-.48,1.48-.72,4.21-.72,8.19v16.15h-9.44v-35.67h8.77v5.24c3.11-4.03,7.03-6.04,11.75-6.04,2.08,0,3.98.38,5.71,1.12,1.72.75,3.03,1.71,3.91,2.87.89,1.16,1.5,2.49,1.85,3.96.35,1.48.52,3.59.52,6.35v22.17h0Z"/>
        <path class="cls-19" d="M3243.86,73.55l-8.56-1.54c.96-3.45,2.62-6,4.97-7.66,2.35-1.66,5.84-2.49,10.48-2.49,4.21,0,7.34.5,9.4,1.49,2.06,1,3.51,2.26,4.35,3.79.84,1.53,1.26,4.35,1.26,8.45l-.1,11.01c0,3.13.15,5.45.45,6.93.3,1.49.87,3.08,1.7,4.79h-9.34c-.25-.63-.55-1.56-.91-2.79-.16-.56-.27-.93-.33-1.11-1.61,1.57-3.34,2.74-5.17,3.53-1.83.78-3.79,1.18-5.88,1.18-3.67,0-6.57-1-8.68-2.99-2.12-1.99-3.17-4.51-3.17-7.56,0-2.01.48-3.81,1.45-5.39.96-1.58,2.31-2.79,4.05-3.63,1.74-.84,4.24-1.57,7.51-2.2,4.41-.83,7.47-1.6,9.17-2.32v-.94c0-1.82-.45-3.11-1.34-3.88-.9-.77-2.58-1.16-5.07-1.16-1.68,0-2.99.33-3.93.99-.94.66-1.7,1.82-2.28,3.48h0ZM3256.49,81.2c-1.21.4-3.12.88-5.74,1.44-2.62.56-4.33,1.11-5.14,1.65-1.23.87-1.85,1.98-1.85,3.32s.49,2.46,1.48,3.43c.99.96,2.24,1.44,3.76,1.44,1.7,0,3.32-.56,4.87-1.68,1.14-.85,1.89-1.89,2.25-3.12.25-.81.37-2.34.37-4.6v-1.88h0Z"/>
        <path class="cls-19" d="M3307.5,98.33h-9.44v-18.2c0-3.85-.2-6.34-.6-7.47s-1.06-2.01-1.96-2.64c-.91-.63-2-.94-3.27-.94-1.64,0-3.1.45-4.4,1.34-1.3.9-2.19,2.08-2.67,3.56-.48,1.48-.72,4.21-.72,8.19v16.15h-9.44v-35.67h8.77v5.24c3.11-4.03,7.03-6.04,11.75-6.04,2.08,0,3.98.38,5.71,1.12,1.72.75,3.03,1.71,3.91,2.87.89,1.16,1.5,2.49,1.85,3.96.35,1.48.52,3.59.52,6.35v22.17h0Z"/>
        <path class="cls-19" d="M3348.17,73.21l-9.3,1.68c-.31-1.86-1.02-3.26-2.13-4.2-1.11-.94-2.55-1.41-4.31-1.41-2.35,0-4.23.81-5.62,2.43s-2.1,4.34-2.1,8.14c0,4.23.71,7.22,2.13,8.97,1.42,1.75,3.33,2.62,5.73,2.62,1.79,0,3.26-.51,4.4-1.53,1.14-1.02,1.95-2.77,2.42-5.26l9.27,1.58c-.96,4.25-2.81,7.47-5.54,9.64-2.73,2.17-6.39,3.26-10.98,3.26-5.22,0-9.38-1.65-12.48-4.94-3.1-3.29-4.65-7.85-4.65-13.67s1.56-10.47,4.67-13.75c3.11-3.28,7.32-4.92,12.63-4.92,4.34,0,7.8.93,10.36,2.8,2.56,1.87,4.41,4.72,5.52,8.55h0Z"/>
        <path class="cls-19" d="M3355.33,57.83v-8.73h9.44v8.73h-9.44ZM3355.33,98.33v-35.67h9.44v35.67h-9.44Z"/>
        <path class="cls-19" d="M3381.49,73.55l-8.56-1.54c.96-3.45,2.62-6,4.97-7.66,2.35-1.66,5.84-2.49,10.48-2.49,4.21,0,7.34.5,9.4,1.49,2.06,1,3.51,2.26,4.35,3.79.84,1.53,1.26,4.35,1.26,8.45l-.1,11.01c0,3.13.15,5.45.45,6.93.3,1.49.87,3.08,1.7,4.79h-9.34c-.25-.63-.55-1.56-.91-2.79-.16-.56-.27-.93-.33-1.11-1.61,1.57-3.34,2.74-5.17,3.53-1.83.78-3.79,1.18-5.88,1.18-3.67,0-6.57-1-8.68-2.99-2.12-1.99-3.17-4.51-3.17-7.56,0-2.01.48-3.81,1.45-5.39.96-1.58,2.31-2.79,4.05-3.63,1.74-.84,4.24-1.57,7.51-2.2,4.41-.83,7.47-1.6,9.17-2.32v-.94c0-1.82-.45-3.11-1.34-3.88-.9-.77-2.58-1.16-5.07-1.16-1.68,0-2.99.33-3.93.99-.94.66-1.7,1.82-2.28,3.48h0ZM3394.11,81.2c-1.21.4-3.12.88-5.74,1.44-2.62.56-4.33,1.11-5.14,1.65-1.23.87-1.85,1.98-1.85,3.32s.49,2.46,1.48,3.43c.99.96,2.24,1.44,3.76,1.44,1.7,0,3.32-.56,4.87-1.68,1.14-.85,1.89-1.89,2.25-3.12.25-.81.37-2.34.37-4.6v-1.88h0Z"/>
        <path class="cls-19" d="M3445.39,98.33h-8.76v-5.24c-1.46,2.04-3.17,3.55-5.16,4.55-1.98,1-3.98,1.49-5.99,1.49-4.1,0-7.61-1.65-10.53-4.95-2.92-3.3-4.38-7.91-4.38-13.82s1.42-10.64,4.27-13.79c2.84-3.15,6.44-4.72,10.78-4.72,3.98,0,7.43,1.66,10.34,4.97v-17.73h9.44v49.23h0ZM3420.21,79.72c0,3.81.52,6.56,1.58,8.26,1.52,2.46,3.65,3.69,6.38,3.69,2.17,0,4.02-.92,5.54-2.77,1.52-1.85,2.28-4.61,2.28-8.28,0-4.1-.74-7.05-2.22-8.85-1.48-1.8-3.37-2.7-5.68-2.7s-4.11.89-5.62,2.67c-1.51,1.78-2.27,4.44-2.27,7.98h0Z"/>
        <path class="cls-19" d="M3452.52,79.99c0-3.13.77-6.17,2.32-9.1,1.54-2.93,3.73-5.17,6.56-6.72,2.83-1.55,5.99-2.32,9.49-2.32,5.4,0,9.82,1.75,13.27,5.26,3.45,3.5,5.17,7.93,5.17,13.28s-1.74,9.87-5.22,13.42c-3.48,3.55-7.86,5.32-13.15,5.32-3.27,0-6.39-.74-9.35-2.22-2.97-1.48-5.22-3.64-6.77-6.5-1.55-2.85-2.32-6.33-2.32-10.43h0ZM3462.19,80.5c0,3.54.84,6.25,2.52,8.13,1.68,1.88,3.75,2.82,6.21,2.82s4.53-.94,6.2-2.82,2.5-4.61,2.5-8.19-.83-6.18-2.5-8.06-3.73-2.82-6.2-2.82-4.53.94-6.21,2.82c-1.68,1.88-2.52,4.59-2.52,8.13h0Z"/>
        <path class="cls-19" d="M3515.55,62.66h8.8v5.24c1.14-1.79,2.69-3.25,4.64-4.37,1.95-1.12,4.11-1.68,6.48-1.68,4.14,0,7.66,1.62,10.54,4.87,2.89,3.25,4.33,7.77,4.33,13.57s-1.46,10.58-4.37,13.89c-2.91,3.3-6.44,4.95-10.58,4.95-1.97,0-3.76-.39-5.36-1.18-1.6-.78-3.29-2.13-5.05-4.03v17.97h-9.44v-49.23h0ZM3524.89,79.89c0,4.01.79,6.97,2.39,8.88,1.59,1.91,3.53,2.87,5.81,2.87s4.02-.88,5.48-2.64c1.46-1.76,2.18-4.64,2.18-8.65,0-3.74-.75-6.51-2.25-8.33-1.5-1.81-3.36-2.72-5.57-2.72s-4.22.89-5.74,2.67c-1.52,1.78-2.28,4.42-2.28,7.91h0Z"/>
        <path class="cls-19" d="M3578.49,86.98l9.4,1.58c-1.21,3.45-3.12,6.07-5.73,7.88-2.61,1.8-5.87,2.7-9.79,2.7-6.2,0-10.79-2.03-13.77-6.08-2.35-3.25-3.53-7.34-3.53-12.29,0-5.91,1.55-10.54,4.64-13.89,3.09-3.35,7-5.02,11.72-5.02,5.31,0,9.49,1.75,12.56,5.26,3.07,3.5,4.53,8.87,4.4,16.1h-23.64c.07,2.8.83,4.98,2.28,6.53,1.46,1.56,3.27,2.33,5.44,2.33,1.48,0,2.72-.4,3.73-1.21s1.77-2.1,2.28-3.9h0ZM3579.02,77.44c-.07-2.73-.77-4.81-2.11-6.23-1.34-1.42-2.98-2.13-4.9-2.13-2.06,0-3.76.75-5.1,2.25-1.34,1.5-2,3.54-1.98,6.11h14.1Z"/>
        <path class="cls-19" d="M3596.08,98.33v-49.23h9.44v49.23h-9.44Z"/>
        <path class="cls-19" d="M3622.24,73.55l-8.56-1.54c.96-3.45,2.62-6,4.97-7.66,2.35-1.66,5.84-2.49,10.48-2.49,4.21,0,7.34.5,9.4,1.49,2.06,1,3.51,2.26,4.35,3.79.84,1.53,1.26,4.35,1.26,8.45l-.1,11.01c0,3.13.15,5.45.45,6.93.3,1.49.87,3.08,1.7,4.79h-9.34c-.25-.63-.55-1.56-.91-2.79-.16-.56-.27-.93-.33-1.11-1.61,1.57-3.34,2.74-5.17,3.53-1.83.78-3.79,1.18-5.88,1.18-3.67,0-6.57-1-8.68-2.99-2.12-1.99-3.17-4.51-3.17-7.56,0-2.01.48-3.81,1.45-5.39.96-1.58,2.31-2.79,4.05-3.63,1.74-.84,4.24-1.57,7.51-2.2,4.41-.83,7.47-1.6,9.17-2.32v-.94c0-1.82-.45-3.11-1.34-3.88-.9-.77-2.58-1.16-5.07-1.16-1.68,0-2.99.33-3.93.99-.94.66-1.7,1.82-2.28,3.48h0ZM3634.87,81.2c-1.21.4-3.12.88-5.74,1.44-2.62.56-4.33,1.11-5.14,1.65-1.23.87-1.85,1.98-1.85,3.32s.49,2.46,1.48,3.43c.99.96,2.24,1.44,3.76,1.44,1.7,0,3.32-.56,4.87-1.68,1.14-.85,1.89-1.89,2.25-3.12.25-.81.37-2.34.37-4.6v-1.88h0Z"/>
        <path class="cls-19" d="M3061.11,131.63h9.94v26.67c0,4.23.12,6.97.37,8.23.43,2.02,1.44,3.63,3.04,4.85,1.6,1.22,3.79,1.83,6.57,1.83s4.95-.58,6.38-1.73c1.43-1.15,2.29-2.57,2.59-4.25.29-1.68.44-4.47.44-8.36v-27.24h9.94v25.86c0,5.91-.27,10.09-.81,12.53-.54,2.44-1.53,4.5-2.97,6.18-1.45,1.68-3.38,3.02-5.79,4.01s-5.58,1.49-9.47,1.49c-4.7,0-8.27-.54-10.7-1.63-2.43-1.08-4.35-2.49-5.76-4.23-1.41-1.73-2.34-3.55-2.79-5.46-.65-2.82-.97-6.98-.97-12.49v-26.26h0Z"/>
        <path class="cls-19" d="M3143.22,180.86h-9.44v-18.2c0-3.85-.2-6.34-.6-7.47s-1.06-2.01-1.96-2.64c-.91-.63-2-.94-3.27-.94-1.64,0-3.1.45-4.4,1.34-1.3.9-2.19,2.08-2.67,3.56-.48,1.48-.72,4.21-.72,8.19v16.15h-9.44v-35.67h8.77v5.24c3.11-4.03,7.03-6.05,11.75-6.05,2.08,0,3.98.38,5.71,1.12,1.72.75,3.03,1.71,3.91,2.87.89,1.17,1.5,2.49,1.85,3.96.35,1.48.52,3.59.52,6.35v22.17h0Z"/>
        <path class="cls-19" d="M3152.79,140.36v-8.73h9.44v8.73h-9.44ZM3152.79,180.86v-35.67h9.44v35.67h-9.44Z"/>
        <path class="cls-19" d="M3178.95,156.08l-8.56-1.55c.96-3.45,2.62-6,4.97-7.66,2.35-1.66,5.84-2.48,10.48-2.48,4.21,0,7.34.5,9.4,1.49,2.06,1,3.51,2.26,4.35,3.8.84,1.53,1.26,4.35,1.26,8.45l-.1,11.02c0,3.13.15,5.45.45,6.93.3,1.49.87,3.08,1.7,4.79h-9.34c-.25-.63-.55-1.56-.91-2.79-.16-.56-.27-.93-.33-1.11-1.61,1.57-3.34,2.74-5.17,3.53-1.83.78-3.79,1.18-5.88,1.18-3.67,0-6.57-1-8.68-2.99-2.12-1.99-3.17-4.51-3.17-7.56,0-2.02.48-3.81,1.45-5.39.96-1.58,2.31-2.79,4.05-3.63,1.74-.84,4.24-1.57,7.51-2.2,4.41-.83,7.47-1.6,9.17-2.32v-.94c0-1.82-.45-3.11-1.34-3.88-.9-.77-2.58-1.16-5.07-1.16-1.68,0-2.99.33-3.93.99-.94.66-1.7,1.82-2.28,3.48h0ZM3178.88,140.4h-4.3c-.02-.52-.03-.92-.03-1.21,0-2.35.57-4.16,1.71-5.42,1.14-1.27,2.61-1.9,4.4-1.9.78,0,1.51.08,2.18.25.67.17,1.9.65,3.68,1.45s3.17,1.19,4.18,1.19c.72,0,1.31-.22,1.8-.67s.79-1.2.92-2.25h4.37c-.02,3.02-.59,5.18-1.7,6.48-1.11,1.3-2.54,1.95-4.28,1.95-.76,0-1.51-.08-2.25-.24-.51-.13-1.8-.59-3.86-1.38-2.06-.78-3.56-1.18-4.5-1.18-.72,0-1.28.22-1.68.65-.4.44-.62,1.19-.64,2.27h0ZM3191.57,163.74c-1.21.4-3.12.89-5.74,1.44-2.62.56-4.33,1.11-5.14,1.65-1.23.87-1.85,1.98-1.85,3.32s.49,2.46,1.48,3.43c.99.96,2.24,1.44,3.76,1.44,1.7,0,3.32-.56,4.87-1.68,1.14-.85,1.89-1.89,2.25-3.12.25-.81.37-2.34.37-4.6v-1.88h0Z"/>
        <path class="cls-19" d="M3207.96,162.53c0-3.13.77-6.17,2.32-9.1,1.54-2.93,3.73-5.17,6.56-6.72,2.83-1.55,5.99-2.32,9.49-2.32,5.4,0,9.82,1.75,13.27,5.26,3.45,3.5,5.17,7.93,5.17,13.28s-1.74,9.87-5.22,13.42-7.86,5.32-13.15,5.32c-3.27,0-6.39-.74-9.35-2.22-2.97-1.48-5.22-3.64-6.77-6.5-1.55-2.85-2.32-6.33-2.32-10.43h0ZM3217.64,163.03c0,3.54.84,6.25,2.52,8.13,1.68,1.88,3.75,2.82,6.21,2.82s4.53-.94,6.2-2.82,2.5-4.61,2.5-8.19-.83-6.18-2.5-8.06-3.73-2.82-6.2-2.82-4.53.94-6.21,2.82c-1.68,1.88-2.52,4.59-2.52,8.13Z"/>
        <path class="cls-19" d="M3271.33,180.86v-49.23h36.5v8.33h-26.56v10.92h24.72v8.29h-24.72v13.4h27.5v8.3h-37.45,0Z"/>
        <path class="cls-19" d="M3340.62,180.86v-5.34c-1.3,1.9-3.01,3.4-5.12,4.5-2.12,1.1-4.35,1.64-6.7,1.64s-4.55-.53-6.45-1.58c-1.9-1.05-3.28-2.53-4.13-4.43-.85-1.9-1.28-4.53-1.28-7.89v-22.57h9.44v16.39c0,5.02.17,8.09.52,9.22.35,1.13.98,2.03,1.9,2.69s2.08.99,3.49.99c1.61,0,3.06-.44,4.33-1.33,1.27-.88,2.15-1.98,2.62-3.29.47-1.31.71-4.52.71-9.62v-15.05h9.44v35.67h-8.77,0Z"/>
        <path class="cls-19" d="M3368.19,180.86h-9.44v-35.67h8.76v5.07c1.5-2.39,2.85-3.97,4.05-4.73,1.2-.76,2.56-1.14,4.08-1.14,2.15,0,4.22.59,6.21,1.78l-2.92,8.23c-1.59-1.03-3.07-1.55-4.43-1.55s-2.44.36-3.36,1.09c-.92.73-1.64,2.04-2.17,3.95-.53,1.9-.79,5.89-.79,11.96v11.02h0Z"/>
        <path class="cls-19" d="M3383.74,162.53c0-3.13.77-6.17,2.32-9.1,1.54-2.93,3.73-5.17,6.56-6.72,2.83-1.55,5.99-2.32,9.49-2.32,5.4,0,9.82,1.75,13.27,5.26,3.45,3.5,5.17,7.93,5.17,13.28s-1.74,9.87-5.22,13.42c-3.48,3.55-7.86,5.32-13.15,5.32-3.27,0-6.39-.74-9.35-2.22-2.97-1.48-5.22-3.64-6.77-6.5-1.55-2.85-2.32-6.33-2.32-10.43h0ZM3393.41,163.03c0,3.54.84,6.25,2.52,8.13,1.68,1.88,3.75,2.82,6.21,2.82s4.53-.94,6.2-2.82,2.5-4.61,2.5-8.19-.83-6.18-2.5-8.06-3.73-2.82-6.2-2.82-4.53.94-6.21,2.82c-1.68,1.88-2.52,4.59-2.52,8.13Z"/>
        <path class="cls-19" d="M3427.67,145.2h8.8v5.24c1.14-1.79,2.69-3.25,4.64-4.37,1.95-1.12,4.11-1.68,6.48-1.68,4.14,0,7.66,1.62,10.54,4.87,2.89,3.25,4.33,7.77,4.33,13.57s-1.46,10.58-4.37,13.89c-2.91,3.3-6.44,4.95-10.58,4.95-1.97,0-3.76-.39-5.36-1.18-1.6-.78-3.29-2.13-5.05-4.03v17.97h-9.44v-49.23h0ZM3437,162.43c0,4.01.79,6.97,2.39,8.88,1.59,1.91,3.53,2.87,5.81,2.87s4.02-.88,5.48-2.64c1.46-1.76,2.18-4.64,2.18-8.65,0-3.74-.75-6.51-2.25-8.33-1.5-1.81-3.36-2.72-5.57-2.72s-4.22.89-5.74,2.67c-1.52,1.78-2.28,4.42-2.28,7.91h0Z"/>
        <path class="cls-19" d="M3490.6,169.51l9.4,1.58c-1.21,3.45-3.12,6.07-5.73,7.88-2.61,1.8-5.87,2.7-9.79,2.7-6.2,0-10.79-2.03-13.77-6.08-2.35-3.25-3.53-7.34-3.53-12.29,0-5.91,1.55-10.54,4.64-13.89,3.09-3.35,7-5.02,11.72-5.02,5.31,0,9.49,1.75,12.56,5.26,3.07,3.5,4.53,8.87,4.4,16.1h-23.64c.07,2.8.83,4.98,2.28,6.53,1.46,1.56,3.27,2.33,5.44,2.33,1.48,0,2.72-.4,3.73-1.21s1.77-2.1,2.28-3.9h0ZM3491.14,159.97c-.07-2.73-.77-4.81-2.11-6.23-1.34-1.42-2.98-2.13-4.9-2.13-2.06,0-3.76.75-5.1,2.25-1.34,1.5-2,3.54-1.98,6.11h14.1Z"/>
        <path class="cls-19" d="M3508.2,140.36v-8.73h9.44v8.73h-9.44ZM3508.2,180.86v-35.67h9.44v35.67h-9.44Z"/>
        <path class="cls-19" d="M3534.36,156.08l-8.56-1.55c.96-3.45,2.62-6,4.97-7.66,2.35-1.66,5.84-2.48,10.48-2.48,4.21,0,7.34.5,9.4,1.49,2.06,1,3.51,2.26,4.35,3.8.84,1.53,1.26,4.35,1.26,8.45l-.1,11.02c0,3.13.15,5.45.45,6.93.3,1.49.87,3.08,1.7,4.79h-9.34c-.25-.63-.55-1.56-.91-2.79-.16-.56-.27-.93-.33-1.11-1.61,1.57-3.34,2.74-5.17,3.53-1.83.78-3.79,1.18-5.88,1.18-3.67,0-6.57-1-8.68-2.99-2.12-1.99-3.17-4.51-3.17-7.56,0-2.02.48-3.81,1.45-5.39.96-1.58,2.31-2.79,4.05-3.63,1.74-.84,4.24-1.57,7.51-2.2,4.41-.83,7.47-1.6,9.17-2.32v-.94c0-1.82-.45-3.11-1.34-3.88-.9-.77-2.58-1.16-5.07-1.16-1.68,0-2.99.33-3.93.99-.94.66-1.7,1.82-2.28,3.48h0ZM3546.98,163.74c-1.21.4-3.12.89-5.74,1.44-2.62.56-4.33,1.11-5.14,1.65-1.23.87-1.85,1.98-1.85,3.32s.49,2.46,1.48,3.43c.99.96,2.24,1.44,3.76,1.44,1.7,0,3.32-.56,4.87-1.68,1.14-.85,1.89-1.89,2.25-3.12.25-.81.37-2.34.37-4.6v-1.88h0Z"/>
      </g>
      <g>
        <path class="cls-22" d="M267.5,45.71c-3.98,3.32-8.08,6.51-12.3,9.57,1.19,2.31,2.29,4.68,3.28,7.12-15.52,12.14-32.89,21.57-51.96,27.77-21.57,7.02-43.82,9.41-66.12,7.68-2.08.17-4.17.32-6.25.43.04,10.45,1.88,21.16,5.73,31.64.22.59.44,1.18.67,1.77,21.09-.43,42.45-4,63.53-11.01,30.59-10.18,57.51-26.62,79.86-47.48-3.98-10.45-9.62-19.69-16.45-27.5"/>
        <path class="cls-8" d="M190.23,43.64c14.33-3.42,27.9-8.49,40.6-15.02-14.26-5.46-29.7-6.86-44.95-3.22-15.25,3.64-28.39,11.85-38.66,23.16,14.28.09,28.68-1.5,43.01-4.92"/>
        <path class="cls-1" d="M206.53,90.17c-27.51,8.95-56.13,10.41-84.55,5.33.9-15.7,4.23-30.4,9.71-43.27,20.15.52,40.19-2.23,59.7-8.58,13.74-4.47,26.64-10.55,38.65-18.04,12.27,9.09,22.28,21.59,28.45,36.79-15.52,12.13-32.9,21.57-51.96,27.77"/>
        <path class="cls-9" d="M207.81,147.46c-18.48,3.46-36.15,8.78-52.86,15.71,17.56,6.34,36.99,8.22,56.65,4.53,19.67-3.69,37.1-12.48,51.17-24.74-18.08-.41-36.48,1.04-54.96,4.51"/>
        <path class="cls-4" d="M211.95,115.97c24.13-7.05,46.19-17.76,65.78-31.33,1.86,14.42-.2,28.73-5.52,41.58-15.56,9.33-32.55,16.84-50.77,22.17-24.4,7.14-49.05,9.78-73.07,8.43-10.3-8.5-18.68-19.65-23.95-32.88,28.6,3.01,58.24.61,87.55-7.96"/>
        <path class="cls-18" d="M194.53,42.58c12.79-3.37,24.95-8.06,36.4-13.95-1.22-.47-2.45-.89-3.69-1.3-10.28,6.14-21.2,11.26-32.72,15.25"/>
        <path class="cls-18" d="M140.41,97.85c22.3,1.74,44.55-.66,66.12-7.68,19.06-6.2,36.43-15.63,51.95-27.77-.99-2.45-2.1-4.82-3.28-7.12-18.48,13.39-39.2,24.19-61.84,31.73-17.56,5.84-35.31,9.4-52.96,10.84"/>
        <path class="cls-18" d="M232.92,108.72c-6.8,2.72-13.8,5.15-20.97,7.25-24.61,7.19-49.45,10.02-73.72,8.97.51,1.66,1.05,3.32,1.65,4.98.22.6.44,1.18.67,1.77,21.09-.43,42.45-3.99,63.53-11.01,10.02-3.33,19.64-7.35,28.84-11.96"/>
        <path class="cls-18" d="M171.85,156.85c16.46-.87,33.07-3.64,49.58-8.46,4.77-1.4,9.46-2.95,14.06-4.64-9.19.75-18.42,1.98-27.68,3.71-12.37,2.32-24.36,5.48-35.96,9.39"/>
        <path class="cls-1" d="M62.61,64.59h37.77l-3.45-21.83h-34.32c-21.37,0-36.79,4.74-47.16,14.5C5.05,67.04,0,81.59,0,101.76s5.05,34.72,15.45,44.5c10.37,9.76,25.79,14.5,47.16,14.5h34.32l3.45-21.83h-37.77c-25.58,0-37.49-11.81-37.49-37.16s11.91-37.17,37.49-37.17"/>
        <polygon class="cls-1" points="371.59 98.14 326.39 42.76 307.51 42.76 307.51 160.76 330.82 160.76 330.82 82.97 363.31 122.36 379.55 122.36 412.04 82.97 412.04 160.76 435.52 160.76 435.52 42.76 416.64 42.76 371.59 98.14"/>
        <path class="cls-1" d="M486.55,64.59h29.62c18.55,0,26.83,6.05,26.83,19.61s-8.27,19.77-26.83,19.77h-29.62v-39.38h0ZM517.48,42.76h-55.55v118h24.62v-34.96h30.93c32.28,0,50.79-15.16,50.79-41.6s-18.51-41.44-50.79-41.44"/>
        <polygon class="cls-1" points="609.62 111.2 667.22 111.2 667.22 90.02 609.62 90.02 609.62 64.59 680.27 64.59 677.01 42.76 584.83 42.76 584.83 160.76 678.49 160.76 681.75 138.92 609.62 138.92 609.62 111.2"/>
        <polygon class="cls-1" points="688.21 64.59 732.19 64.59 732.19 160.76 756.98 160.76 756.98 64.59 800.96 64.59 800.96 42.76 688.21 42.76 688.21 64.59"/>
        <polygon class="cls-1" points="814.57 42.76 814.57 160.76 908.23 160.76 911.48 138.92 839.35 138.92 839.35 111.2 896.96 111.2 896.96 90.02 839.35 90.02 839.35 64.59 910 64.59 906.75 42.76 814.57 42.76"/>
        <path class="cls-8" d="M721.54,214.65c0-10.15,4.87-13.27,14.96-16.18l6.97-2.03c6.77-2.1,9.95-4.2,9.95-8.8s-2.84-7.24-10.16-7.24h-19.09l.81-5.08h18.62c10.76,0,15.71,4.54,15.71,12.39s-4.74,10.77-14.28,13.61l-6.84,2.03c-6.91,2.17-10.76,3.72-10.76,10.22v4.06h32.9l-.81,5.08h-37.98v-8.05h0Z"/>
        <path class="cls-8" d="M807.52,199.01c0-13.2-5.55-19.16-16.99-19.16s-16.99,5.96-16.99,19.16,5.55,19.16,16.99,19.16,16.99-5.96,16.99-19.16M767.64,199.01c0-16.59,7.65-24.37,22.88-24.37s22.88,7.79,22.88,24.37-7.65,24.37-22.88,24.37-22.88-7.79-22.88-24.37"/>
        <path class="cls-8" d="M818.68,217.43h20.92c7.31,0,10.49-2.91,10.49-8.05,0-4.47-2.84-8.53-9.75-8.53h-9.75v-4.94h9.61c6.09,0,8.4-3.72,8.4-7.99,0-4.94-3.05-7.52-10.36-7.52h-18.55l.81-5.08h18.21c10.7,0,15.77,4.47,15.77,11.85,0,4.87-2.51,8.73-6.64,10.83,5.82,2.03,8.12,6.7,8.12,11.98,0,7.79-5.15,12.52-15.91,12.52h-20.58l-.81-5.08h0Z"/>
        <path class="cls-8" d="M903.78,199.01c0-13.2-5.55-19.16-16.99-19.16s-16.99,5.96-16.99,19.16,5.55,19.16,16.99,19.16,16.99-5.96,16.99-19.16M863.9,199.01c0-16.59,7.65-24.37,22.88-24.37s22.88,7.79,22.88,24.37-7.65,24.37-22.88,24.37-22.88-7.79-22.88-24.37"/>
      </g>
    </g>
  </g>
</svg>